<svg width="80" height="66" viewBox="0 0 80 66" fill="none" xmlns="http://www.w3.org/2000/svg">
<path d="M65.3249 36.4362V1H14.8936V36.4362" stroke="#584E42" stroke-width="0.8" stroke-linejoin="round"/>
<path d="M79.3335 25.0067L40.1091 54.3479L0.884766 25.0067" stroke="#584E42" stroke-width="0.8" stroke-miterlimit="10"/>
<path d="M65.3248 14.5229L79.3335 25.0058V62.3491C79.3335 63.0565 79.0383 63.735 78.5129 64.2352C77.9875 64.7355 77.2748 65.0165 76.5318 65.0165H3.68651C2.94344 65.0165 2.2308 64.7355 1.70538 64.2352C1.17995 63.735 0.884766 63.0565 0.884766 62.3491V25.0058L14.8935 14.5229" stroke="#584E42" stroke-width="0.8" stroke-miterlimit="10"/>
<path d="M54.1175 21.4818C54.1175 31.4845 40.1088 37.2003 40.1088 37.2003C40.1088 37.2003 26.1001 31.4845 26.1001 21.4818C26.1 19.9081 26.6456 18.3784 27.6523 17.1302C28.659 15.882 30.0705 14.9852 31.6674 14.5791C33.2644 14.1729 34.9575 14.2801 36.4839 14.884C38.0103 15.488 39.2846 16.5548 40.1088 17.9189C40.933 16.5548 42.2073 15.488 43.7337 14.884C45.2601 14.2801 46.9532 14.1729 48.5502 14.5791C50.1471 14.9852 51.5586 15.882 52.5653 17.1302C53.572 18.3784 54.1176 19.9081 54.1175 21.4818Z" stroke="#584E42" stroke-width="0.8" stroke-linejoin="round"/>
</svg>
